<?xml version="1.0" encoding="utf-8"?>
<!-- Generator: Adobe Illustrator 25.0.1, SVG Export Plug-In . SVG Version: 6.00 Build 0)  -->
<svg version="1.0" id="katman_1" xmlns="http://www.w3.org/2000/svg" xmlns:xlink="http://www.w3.org/1999/xlink" x="0px" y="0px"
	 viewBox="0 0 148 97" style="enable-background:new 0 0 148 97;" xml:space="preserve">
<style type="text/css">
	.st0{fill-rule:evenodd;clip-rule:evenodd;fill:#050101;}
</style>
<desc>Created with Sketch.</desc>
<g id="system">
	<g id="pc_x2F_header" transform="translate(-360.000000, -21.000000)">
		<g id="编组" transform="translate(360.000000, 21.728395)">
			<path id="形状结合" class="st0" d="M43.1,50.6v2.5c0,7-10.2,11-13.3,12l0,0l-1.1,0.4v-4.3l0.6-0.2c4.9-1.8,9.8-4.9,9.8-7.9
				l0,0v-2.5H43.1z M27.7,30.1l4.2,1.3v4.4l-4.2-1.3l-0.3,0.1v9.9h4.4v4.1h-4.4v16.8L26.2,65c-0.5-0.2-1.4-0.5-2.5-1l0,0l-0.5-0.2
				V31.4L27.7,30.1z M21.9,31.8v4.4L16.3,38v6.5h5.7v18.9l-1.3-0.6c-3.9-2-8.5-5.3-8.5-10l0,0v-2.2h4.1v2.2c0,1,0.5,2,1.5,3l0,0
				v-7.2h-5.7V34.8L21.9,31.8z M33.1,31.7l10,3.1v13.8h-5.9v6c0,0-1.3,1.7-4.1,3.1c0-0.8,0-12.9,0-20.3L33.1,31.7z M111.7,38.1
				c3.4,0,6.2,2.7,6.3,6.1c0,3.4-2.8,6.2-6.2,6.2l-4,0l0,6.9l-3.2,0l-0.1-19.2L111.7,38.1z M96.5,44c3.7,0,6.7,3,6.7,6.6
				c0,0.6-0.1,1.1-0.2,1.7l-9.5,0c0.6,1.1,1.7,1.8,3,1.8c0.6,0,1.2-0.2,1.7-0.4v0l3.5,1.1c-1.2,1.5-3.1,2.5-5.3,2.5
				c-3.7,0-6.7-3-6.7-6.6C89.7,47,92.7,44,96.5,44z M89.1,38.1v3.2h-0.8c-1.2,0-2.2,1-2.3,2.2l0,0.5h3.1v3.2H86v10.1h-3.2V47.2h-1.5
				V44h1.5v-1.1c0-2.7,2.2-4.8,4.9-4.8H89.1z M73.3,44C73.3,44,73.3,44,73.3,44c0.1,0,0.2,0,0.3,0c1.2,0.1,2.4,0.4,3.3,1.1l3.1-1
				v13.2h-3.2v-1c-0.2,0.1-0.4,0.2-0.6,0.3v0c-0.3,0.2-0.7,0.3-1,0.4l-0.1,0l0,0c-0.1,0-0.2,0-0.2,0.1l-0.1,0l0,0
				c-0.1,0-0.1,0-0.2,0c-0.1,0-0.1,0-0.2,0c-0.1,0-0.1,0-0.2,0c-0.1,0-0.1,0-0.2,0c-0.1,0-0.2,0-0.2,0c0,0-0.1,0-0.1,0
				c-0.1,0-0.2,0-0.4,0c-1.5,0-2.9-0.5-4-1.3c-0.3-0.2-0.5-0.4-0.7-0.6c-0.2-0.2-0.4-0.5-0.6-0.7c-0.8-1-1.3-2.3-1.3-3.7
				c0-0.1,0-0.2,0-0.3v0C66.6,47,69.6,44,73.3,44L73.3,44z M124.3,44C124.3,44,124.4,44,124.3,44c0.1,0,0.2,0,0.3,0
				c1.2,0.1,2.4,0.4,3.3,1.1l3.1-1v13.2h-3.2v-1c-0.2,0.1-0.4,0.2-0.6,0.3v0c-0.3,0.2-0.7,0.3-1,0.4l-0.1,0l0,0
				c-0.1,0-0.2,0-0.2,0.1l-0.1,0l0,0c-0.1,0-0.1,0-0.2,0c-0.1,0-0.1,0-0.2,0c-0.1,0-0.1,0-0.2,0c-0.1,0-0.1,0-0.2,0
				c-0.1,0-0.2,0-0.2,0c0,0-0.1,0-0.1,0c-0.1,0-0.2,0-0.4,0c-1.5,0-2.9-0.5-4-1.3c-0.3-0.2-0.5-0.4-0.7-0.6
				c-0.2-0.2-0.4-0.5-0.6-0.7c-0.8-1-1.3-2.3-1.3-3.7c0-0.1,0-0.2,0-0.3v0C117.6,47,120.6,44,124.3,44L124.3,44z M135.6,38.1v19.1
				h-3.2V39.2L135.6,38.1z M58.1,38.1c3.1,0,5.4,1.6,6.7,4.1c-2,0.7-3.2,1-3.5,1.1c-0.7-1-1.6-1.7-3.2-1.7c-1.5,0-2.5,0.8-2.5,1.8
				c0,1.1,0.7,1.7,3.5,2.6c3,0.9,6.1,1.9,6.1,5.7c0,3.5-2.8,5.6-6.8,5.6c-3.8,0-6.3-1.8-7.3-4.6c1.5-0.5,2.6-0.8,3.5-1
				c0.7,1.3,2,2,3.9,2c2.2,0,3-0.9,3-2c0-1.4-1.3-1.9-4-2.7c-2.9-0.8-5.6-2-5.6-5.5C52,40.1,54.9,38.1,58.1,38.1z M73.2,47
				c-2,0-3.6,1.6-3.6,3.5c0,1.9,1.6,3.5,3.6,3.5c2,0,3.6-1.6,3.6-3.5C76.8,48.6,75.2,47,73.2,47z M124.2,47c-2,0-3.6,1.6-3.6,3.5
				c0,1.9,1.6,3.5,3.6,3.5c2,0,3.6-1.6,3.6-3.5C127.8,48.6,126.2,47,124.2,47z M96.5,47.2c-1.4,0-2.6,0.8-3.1,1.9h6.3
				C99,48,97.8,47.2,96.5,47.2z M111.7,41.3l-4,0l0,5.9l4,0c1.7,0,3-1.3,3-3C114.7,42.6,113.4,41.3,111.7,41.3L111.7,41.3z
				 M37.2,37.4v7.1H39v-6.6L37.2,37.4z"/>
		</g>
	</g>
</g>
</svg>
